<?xml version="1.0" encoding="UTF-8" standalone="no"?>
<!-- Created with Inkscape (http://www.inkscape.org/) -->

<svg
   width="79.158066mm"
   height="76.944443mm"
   viewBox="0 0 79.158066 76.944443"
   version="1.1"
   id="svg27118"
   inkscape:export-filename="mountaint.svg"
   inkscape:export-xdpi="96"
   inkscape:export-ydpi="96"
   xmlns:inkscape="http://www.inkscape.org/namespaces/inkscape"
   xmlns:sodipodi="http://sodipodi.sourceforge.net/DTD/sodipodi-0.dtd"
   xmlns:xlink="http://www.w3.org/1999/xlink"
   xmlns="http://www.w3.org/2000/svg"
   xmlns:svg="http://www.w3.org/2000/svg">
  <sodipodi:namedview
     id="namedview27120"
     pagecolor="#ffffff"
     bordercolor="#000000"
     borderopacity="0.25"
     inkscape:showpageshadow="2"
     inkscape:pageopacity="0.0"
     inkscape:pagecheckerboard="0"
     inkscape:deskcolor="#d1d1d1"
     inkscape:document-units="mm"
     showgrid="false" />
  <defs
     id="defs27115">
    <linearGradient
       inkscape:collect="always"
       id="linearGradient27780">
      <stop
         style="stop-color:#00226e;stop-opacity:1;"
         offset="0"
         id="stop27776" />
      <stop
         style="stop-color:#9ec5fb;stop-opacity:1;"
         offset="1"
         id="stop27778" />
    </linearGradient>
    <linearGradient
       inkscape:collect="always"
       id="linearGradient27683">
      <stop
         style="stop-color:#10232e;stop-opacity:1;"
         offset="0"
         id="stop27679" />
      <stop
         style="stop-color:#acdae5;stop-opacity:1;"
         offset="1"
         id="stop27681" />
    </linearGradient>
    <linearGradient
       inkscape:collect="always"
       id="linearGradient27662">
      <stop
         style="stop-color:#284658;stop-opacity:1;"
         offset="0"
         id="stop27658" />
      <stop
         style="stop-color:#878fde;stop-opacity:1;"
         offset="1"
         id="stop27660" />
    </linearGradient>
    <linearGradient
       inkscape:collect="always"
       xlink:href="#linearGradient27662"
       id="linearGradient27664"
       x1="82.132805"
       y1="171.61018"
       x2="80.741455"
       y2="126.12201"
       gradientUnits="userSpaceOnUse"
       gradientTransform="translate(-1.1547355,-2.19721)" />
    <linearGradient
       inkscape:collect="always"
       xlink:href="#linearGradient27683"
       id="linearGradient27677"
       x1="77.959221"
       y1="171.93713"
       x2="80.505692"
       y2="137.52408"
       gradientUnits="userSpaceOnUse"
       gradientTransform="rotate(5.8467171,79.199464,143.13587)" />
    <linearGradient
       inkscape:collect="always"
       xlink:href="#linearGradient27780"
       id="linearGradient27718"
       gradientUnits="userSpaceOnUse"
       gradientTransform="rotate(5.8467171,56.866634,113.26889)"
       x1="77.959221"
       y1="171.93713"
       x2="80.505692"
       y2="137.52408" />
  </defs>
  <g
     inkscape:label="Layer 1"
     inkscape:groupmode="layer"
     id="layer1"
     transform="translate(-41.92431,-93.742231)">
    <path
       style="opacity:1;fill:url(#linearGradient27677);fill-opacity:1;fill-rule:evenodd;stroke:#000000;stroke-width:1;stroke-linecap:round;stroke-linejoin:round;stroke-dasharray:none;stroke-opacity:1;paint-order:markers fill stroke"
       d="m 47.628491,166.90003 c 0.678769,-4.66211 -0.585991,-3.81164 0.235407,-8.45253 0.342256,-1.93377 0.900091,-3.74776 1.016475,-5.71613 0.11242,-1.90125 -0.281555,-7.06175 0.91042,-8.89081 0.917961,-1.40859 2.139989,3.7791 3.248684,2.92937 0.895426,-0.68627 1.760989,-5.58435 2.453321,-6.79273 0.730217,-1.27451 1.617169,-2.35103 2.636666,-3.40122 0.739711,-0.76198 1.810983,-1.2789 2.351581,-2.23653 0.47797,-0.84668 0.889569,-1.72987 1.295713,-2.61327 0.793271,-1.72544 1.341033,-3.55251 2.164753,-5.27023 1.131496,-2.35952 1.311604,-2.27355 2.032123,-4.29885 0.815219,-2.29149 1.382427,-4.02502 2.688216,-6.17174 0.163203,-0.26831 0.281523,-0.63268 0.573977,-0.7471 1.426469,-0.55813 2.443916,1.98092 2.795241,2.82325 0.631759,1.51471 1.191336,3.00539 1.999239,4.44304 0.987835,1.75783 2.025301,3.19298 2.690602,5.14062 0.523056,1.53123 1.722374,8.53362 4.305966,8.79818 2.103284,0.21538 3.304861,-3.8709 3.899882,-4.07775 0.606074,-0.21069 3.068146,2.75839 4.38409,1.8816 0.749474,-0.49936 1.976124,-3.50465 2.723481,-3.60126 3.374935,-0.43626 3.84232,4.19536 8.976302,4.32177 1.05842,0.026 2.55423,-2.39188 3.1674,-3.07825 0.23657,-0.26481 0.63378,-0.9017 0.86029,-0.62824 1.65534,1.99841 1.38043,8.11846 1.54889,10.78424 0.13909,2.20099 1.49029,0.96485 1.53248,3.17151 0.0702,3.66997 -0.38026,7.2355 -0.68338,10.88397 -0.37769,4.54638 -0.66658,9.10058 -1.1318,13.6437"
       id="path27668"
       sodipodi:nodetypes="cssssssssssssssssssssssscsc" />
    <path
       style="opacity:1;fill:url(#linearGradient27664);fill-opacity:1;fill-rule:evenodd;stroke:#000000;stroke-width:1;stroke-linecap:round;stroke-linejoin:round;stroke-dasharray:none;stroke-opacity:1;paint-order:markers fill stroke"
       d="m 43.470778,169.29104 c 2.637735,-5.15953 5.946773,-10.16383 7.698629,-15.74658 1.943764,-6.1943 2.639163,-12.68046 4.152593,-18.97987 0.328983,-1.36933 0.785762,-6.18781 1.726361,-7.22243 1.103334,-1.21362 3.206195,4.85904 3.919302,5.50081 1.003065,0.90272 1.512983,-0.91847 1.773018,-1.55367 0.66325,-1.62016 0.94139,-0.41827 2.332916,-1.63764 1.585339,-1.3892 2.484816,-5.43583 3.17277,-7.13845 1.619803,-4.00885 2.472391,-8.0222 3.592695,-12.17735 0.970968,-3.60127 2.023308,-7.02029 2.706185,-10.70767 0.312443,-1.68713 0.528579,-2.872028 0.606557,-4.45103 0.01482,-0.300082 0.08005,-1.162717 0.186634,-0.881809 1.408687,3.712749 1.6544,7.925669 2.332919,11.799429 0.833736,4.75993 1.686253,9.52532 2.566209,14.2769 0.902357,4.87253 1.894896,9.76087 3.406058,14.48685 0.620549,1.94069 2.036792,3.22162 2.566213,5.20686 0.469283,1.75976 0.768019,3.56078 1.353092,5.29085 0.496922,1.46942 1.223409,2.80708 1.726359,4.28307 0.373358,1.09569 0.500784,2.52671 1.166457,3.48525 0.645081,0.92887 1.656885,-4.73173 1.819678,-5.16488 0.524105,-1.39452 1.269867,-2.6552 1.633042,-4.11511 0.816319,-3.28147 0.974635,-8.99944 0.653217,-12.42929 -0.07255,-0.77415 -1.558121,-7.73463 0.186634,-7.18044 1.240507,0.39403 2.597111,2.95144 2.892817,3.35927 2.687537,3.70657 4.761347,7.52231 6.345527,11.79943 0.0798,0.21548 1.13011,-0.0846 1.25978,0.042 0.64226,0.62721 1.18572,1.36322 1.63304,2.14154 1.59244,2.77072 2.47374,5.8364 3.87265,8.6921 2.31402,4.72381 5.46799,9.09021 7.60531,13.89898 0.0841,0.32312 0.19565,0.64031 0.25219,0.96937 0.0358,0.20811 0.0513,2.27358 0.0117,2.39348 -0.0261,0.0789 -0.0736,0.14935 -0.11665,0.22045 -0.0582,0.0961 -0.17345,0.19491 -0.20996,0.30444 -0.0894,0.26831 -0.009,0.4874 -0.18663,0.74533 -0.0651,0.0944 -0.35961,0.24145 -0.24496,0.24145 0.1874,0 0.20141,-0.24431 0.20996,-0.36742 0.68616,-0.036 0.0411,0.85564 0.40823,0.96579"
       id="path27602"
       sodipodi:nodetypes="ccccccccccccccccccccccccccccccccccccc" />
    <path
       style="fill:url(#linearGradient27718);fill-opacity:1;fill-rule:evenodd;stroke:#000000;stroke-width:1;stroke-linecap:round;stroke-linejoin:round;stroke-dasharray:none;stroke-opacity:1;paint-order:markers fill stroke"
       d="m 42.424312,170.01433 c 0.67877,-4.66211 6.490889,-0.6049 7.312289,-5.24579 0.34225,-1.93377 2.681681,-4.16345 2.798061,-6.13182 0.11242,-1.90125 -0.75994,-3.82532 0.43203,-5.65438 0.91796,-1.40859 1.364668,6.27323 2.473358,5.4235 0.89543,-0.68627 1.958944,-3.55044 2.651284,-4.75882 0.73021,-1.27451 4.503999,-5.11239 0.426164,-9.2654 -0.744038,-0.75775 -0.861407,-6.05931 0.25656,-7.83347 0.518342,-0.82259 6.052888,10.44386 6.459038,9.56046 0.79327,-1.72544 1.060594,-7.88755 1.884314,-9.60527 1.227879,-1.86142 0.941811,-2.54456 1.414135,-3.81631 1.116331,-3.00576 2.341362,-6.14718 3.355694,-9.0148 1.708246,-4.82937 1.89815,-13.71202 2.1906,-13.82644 1.42647,-0.55813 2.674866,13.4569 3.026196,14.29923 0.63175,1.51471 0.333527,5.03929 1.141427,6.47694 1.151586,3.55181 -1.028221,13.82646 1.008442,14.08726 2.10329,0.21538 1.919177,-10.01715 2.514197,-10.224 0.60608,-0.21069 8.297452,27.284 9.613392,26.40721 0.74948,-0.49936 5.456833,-14.72823 6.204193,-14.82484 3.374934,-0.43626 -0.710637,-8.4386 0.398265,-14.23575 0.198913,-1.03988 2.636709,9.02471 3.249879,8.33834 0.88917,3.36374 4.35632,-0.22101 4.15778,3.2526 0.13909,2.20099 2.79349,8.16517 2.83568,10.37183 -4.05417,10.45032 12.37053,13.10703 12.35508,16.39205"
       id="path27668-0"
       sodipodi:nodetypes="csssssssscasssccsssscccc" />
  </g>
</svg>
